PathFileType	4	(x/y/z)	S10_SL_Cal_T01
DataRate	CameraRate	NumFrames	NumMarkers	Units	OrigDataRate	OrigDataStartFrame	OrigNumFrames
240	240	6	51	mm	240	901	2400
Frame#	Time	Sternum			R.Acromium			L.Acromium			Top.Head			R.ASIS			L.ASIS			R.PSIS			L.PSIS			R.Great.Tro			L.Great.Tro			R.Iliac.Crest			L.Iliac.Crest			V.Sacral			R.Thigh.Upper.Post			R.Thigh.Lower.Ant			R.Thigh.Lower.Post			R.Thigh.Upper.Ant			R.Knee.Lat			R.Knee.Med			R.Shank.Upper.Post			R.Shank.Lower.Ant			R.Shank.Lower.Post			R.Shank.Upper.Ant			R.Ankle.Lat			R.Ankle.Med			R.Heel.Upper			R.Heel.Med			R.Heel.Lat			R.Toe.Lat			R.Toe.Med			R.Toe.Tip			L.Thigh.Upper.Post			L.Thigh.Lower.Ant			L.Thigh.Lower.Post			L.Thigh.Upper.Ant			L.Knee.Lat			L.Knee.Med			L.Shank.Upper.Post			L.Shank.Lower.Ant			L.Shank.Lower.Post			L.Shank.Upper.Ant			L.Ankle.Lat			L.Ankle.Med			L.Heel.Upper			L.Heel.Med			L.Heel.Lat			L.Toe.Lat			L.Toe.Med			L.Toe.Tip			Cervical.Spine			Back			
		X1	Y1	Z1	X2	Y2	Z2	X3	Y3	Z3	X4	Y4	Z4	X5	Y5	Z5	X6	Y6	Z6	X7	Y7	Z7	X8	Y8	Z8	X9	Y9	Z9	X10	Y10	Z10	X11	Y11	Z11	X12	Y12	Z12	X13	Y13	Z13	X14	Y14	Z14	X15	Y15	Z15	X16	Y16	Z16	X17	Y17	Z17	X18	Y18	Z18	X19	Y19	Z19	X20	Y20	Z20	X21	Y21	Z21	X22	Y22	Z22	X23	Y23	Z23	X24	Y24	Z24	X25	Y25	Z25	X26	Y26	Z26	X27	Y27	Z27	X28	Y28	Z28	X29	Y29	Z29	X30	Y30	Z30	X31	Y31	Z31	X32	Y32	Z32	X33	Y33	Z33	X34	Y34	Z34	X35	Y35	Z35	X36	Y36	Z36	X37	Y37	Z37	X38	Y38	Z38	X39	Y39	Z39	X40	Y40	Z40	X41	Y41	Z41	X42	Y42	Z42	X43	Y43	Z43	X44	Y44	Z44	X45	Y45	Z45	X46	Y46	Z46	X47	Y47	Z47	X48	Y48	Z48	X49	Y49	Z49	X50	Y50	Z50	X51	Y51	Z51	

901	3.75	772.65	1309.1	329.03	622.7	1449.6	478.96	626.87	1482.9	174.17	651.47	1774.4	349.55	724	1007.5	436.77	728.47	1027.4	201.5	529.35	1056.8	348.24	537.37	1063.2	267.08	641.68	937.46	505.83	659.49	963.49	140.71	635.19	1099.6	482.53	665.53	1110.9	173.51	505.9	1030.6	310.15	624.29	727.6	509.23	664.7	640.21	471.56	601.8	641.05	501.76	689.25	728.41	474.41	579.2	517.17	464.61	569.53	515.36	337.39	511.08	295.86	475.72	581.84	237.6	466.53	514.41	222.04	472.72	581.8	314.33	468.74	543.08	108.37	456.05	566.67	113.48	380.92	494.04	64.14	406.16	507.82	37.147	380.41	494.56	39.986	440.7	659.69	39.219	508.66	702.09	44.546	404.39	754.81	60.779	454.35	572.99	709.77	119.16	628.77	614	133.84	552.69	616.48	129.52	650.7	700.24	126.19	574.67	523.2	131.46	565.18	505.5	258.74	515.4	308.73	116.48	588	225.89	130.75	523.95	231.61	123.39	579.69	302.3	123.45	564.64	103.79	135.49	579.06	111.41	220.99	500.31	76.751	176.15	511.77	45.812	209.76	508.21	46.412	145.36	684.58	41.426	109.11	711.41	47.332	215.58	766.95	60.328	169.68	555.1	1506.7	336.23	495.02	1290.6	316.54
902	3.7542	772.63	1309.1	329.05	622.68	1449.6	478.98	626.84	1482.9	174.2	651.46	1774.4	349.56	723.97	1007.5	436.77	728.43	1027.4	201.51	529.31	1056.8	348.26	537.32	1063.2	267.1	641.66	937.46	505.83	659.45	963.5	140.72	635.15	1099.6	482.54	665.48	1110.9	173.52	505.85	1030.6	310.17	624.27	727.6	509.24	664.68	640.21	471.56	601.78	641.05	501.77	689.23	728.41	474.41	579.18	517.17	464.62	569.52	515.36	337.39	511.08	295.85	475.72	581.84	237.59	466.53	514.4	222.03	472.73	581.79	314.32	468.74	543.08	108.37	456.05	566.66	113.48	380.92	494.04	64.142	406.16	507.82	37.146	380.41	494.56	39.984	440.7	659.69	39.219	508.66	702.09	44.546	404.39	754.81	60.779	454.35	572.96	709.77	119.16	628.76	614.01	133.85	552.68	616.48	129.53	650.68	700.24	126.2	574.66	523.2	131.46	565.18	505.5	258.75	515.4	308.73	116.48	588	225.89	130.76	523.95	231.61	123.39	579.68	302.29	123.46	564.64	103.79	135.49	579.06	111.41	220.99	500.31	76.752	176.15	511.77	45.813	209.76	508.21	46.412	145.36	684.58	41.427	109.11	711.41	47.334	215.58	766.95	60.328	169.68	555.07	1506.7	336.26	494.97	1290.6	316.56
903	3.7583	772.61	1309.1	329.06	622.66	1449.6	479	626.8	1482.9	174.22	651.46	1774.4	349.58	723.94	1007.5	436.78	728.38	1027.4	201.52	529.26	1056.8	348.28	537.27	1063.2	267.12	641.63	937.46	505.84	659.4	963.51	140.73	635.12	1099.6	482.55	665.43	1110.9	173.53	505.81	1030.6	310.18	624.25	727.6	509.25	664.66	640.22	471.57	601.77	641.05	501.77	689.21	728.41	474.42	579.16	517.17	464.62	569.5	515.36	337.4	511.07	295.85	475.72	581.84	237.58	466.53	514.4	222.03	472.73	581.78	314.32	468.74	543.08	108.37	456.06	566.66	113.48	380.92	494.04	64.145	406.16	507.82	37.145	380.41	494.56	39.982	440.7	659.69	39.219	508.66	702.09	44.547	404.39	754.81	60.778	454.35	572.94	709.77	119.17	628.75	614.02	133.85	552.66	616.48	129.53	650.66	700.25	126.2	574.65	523.2	131.47	565.17	505.5	258.75	515.39	308.73	116.48	587.99	225.89	130.76	523.95	231.6	123.39	579.68	302.29	123.46	564.64	103.8	135.49	579.06	111.41	220.99	500.31	76.752	176.15	511.77	45.813	209.76	508.21	46.412	145.36	684.58	41.427	109.11	711.41	47.336	215.58	766.95	60.328	169.68	555.04	1506.8	336.29	494.92	1290.6	316.58
904	3.7625	772.59	1309.1	329.07	622.63	1449.6	479.02	626.77	1482.9	174.25	651.45	1774.4	349.59	723.91	1007.5	436.78	728.33	1027.4	201.52	529.22	1056.8	348.29	537.23	1063.2	267.14	641.61	937.46	505.84	659.35	963.52	140.73	635.08	1099.6	482.56	665.38	1110.9	173.54	505.77	1030.6	310.2	624.23	727.6	509.26	664.64	640.22	471.57	601.75	641.04	501.78	689.19	728.41	474.42	579.15	517.17	464.63	569.48	515.36	337.4	511.06	295.84	475.73	581.85	237.58	466.53	514.39	222.03	472.73	581.78	314.32	468.75	543.08	108.37	456.06	566.66	113.48	380.93	494.04	64.148	406.16	507.82	37.145	380.41	494.56	39.981	440.7	659.69	39.219	508.66	702.09	44.547	404.39	754.81	60.778	454.35	572.92	709.77	119.17	628.74	614.03	133.86	552.64	616.48	129.54	650.63	700.26	126.21	574.64	523.21	131.48	565.17	505.5	258.76	515.39	308.73	116.49	587.99	225.89	130.77	523.94	231.6	123.4	579.68	302.29	123.47	564.64	103.8	135.49	579.06	111.41	220.98	500.31	76.752	176.16	511.77	45.814	209.76	508.21	46.413	145.36	684.58	41.427	109.11	711.4	47.338	215.58	766.95	60.327	169.68	555.01	1506.8	336.32	494.88	1290.6	316.6
905	3.7667	772.57	1309.1	329.08	622.61	1449.6	479.04	626.74	1482.9	174.27	651.45	1774.4	349.61	723.88	1007.5	436.78	728.28	1027.4	201.53	529.18	1056.8	348.31	537.18	1063.2	267.16	641.58	937.46	505.85	659.31	963.53	140.74	635.05	1099.6	482.57	665.33	1110.9	173.56	505.73	1030.6	310.21	624.2	727.6	509.26	664.62	640.22	471.57	601.73	641.04	501.79	689.16	728.41	474.42	579.13	517.17	464.63	569.46	515.36	337.41	511.05	295.84	475.73	581.85	237.57	466.53	514.39	222.03	472.74	581.77	314.31	468.75	543.07	108.37	456.07	566.66	113.48	380.93	494.04	64.15	406.16	507.82	37.144	380.41	494.56	39.979	440.7	659.69	39.22	508.66	702.09	44.547	404.39	754.8	60.778	454.36	572.89	709.77	119.18	628.73	614.03	133.87	552.63	616.48	129.55	650.61	700.26	126.21	574.62	523.21	131.49	565.16	505.5	258.77	515.38	308.73	116.49	587.99	225.89	130.77	523.94	231.6	123.4	579.67	302.3	123.47	564.64	103.8	135.49	579.07	111.41	220.97	500.31	76.753	176.16	511.77	45.815	209.76	508.21	46.413	145.36	684.58	41.427	109.11	711.4	47.339	215.58	766.95	60.326	169.68	554.98	1506.8	336.35	494.83	1290.6	316.62
906	3.7708	772.55	1309.1	329.09	622.58	1449.6	479.07	626.7	1482.9	174.29	651.44	1774.4	349.62	723.85	1007.5	436.79	728.24	1027.4	201.54	529.14	1056.8	348.33	537.14	1063.2	267.18	641.56	937.46	505.85	659.26	963.54	140.74	635.02	1099.6	482.57	665.29	1110.9	173.57	505.69	1030.6	310.23	624.18	727.6	509.27	664.6	640.22	471.58	601.72	641.04	501.79	689.14	728.41	474.43	579.12	517.17	464.63	569.44	515.36	337.41	511.05	295.83	475.74	581.86	237.56	466.53	514.38	222.02	472.74	581.76	314.31	468.75	543.07	108.37	456.07	566.65	113.48	380.93	494.04	64.152	406.16	507.82	37.144	380.41	494.56	39.978	440.7	659.69	39.22	508.66	702.09	44.547	404.39	754.8	60.778	454.36	572.87	709.77	119.18	628.72	614.04	133.87	552.61	616.48	129.55	650.58	700.27	126.22	574.61	523.21	131.49	565.15	505.5	258.78	515.38	308.73	116.49	587.98	225.9	130.77	523.94	231.6	123.4	579.67	302.3	123.47	564.64	103.8	135.49	579.07	111.4	220.95	500.31	76.753	176.16	511.77	45.816	209.76	508.21	46.414	145.36	684.58	41.428	109.11	711.4	47.341	215.58	766.95	60.325	169.68	554.95	1506.8	336.38	494.79	1290.6	316.64
